<svg width="40" height="40" viewBox="0 0 40 40" fill="none" xmlns="http://www.w3.org/2000/svg">
<path d="M21.6666 1.66666H18.3333V4.99999H15V8.33332H11.6666V11.6667H8.33329V15H4.99996V18.3333H1.66663V21.6667H4.99996V25H8.33329V28.3333H11.6666V31.6667H15V35H18.3333V38.3333H21.6666V35H25V31.6667H28.3333V28.3333H31.6666V25H35V21.6667H38.3333V18.3333H35V15H31.6666V11.6667H28.3333V8.33332H25V4.99999H21.6666V1.66666ZM21.6666 4.99999V8.33332H25V11.6667H28.3333V15H31.6666V18.3333H35V21.6667H31.6666V25H28.3333V28.3333H25V31.6667H21.6666V35H18.3333V31.6667H15V28.3333H11.6666V25H8.33329V21.6667H4.99996V18.3333H8.33329V15H11.6666V11.6667H15V8.33332H18.3333V4.99999H21.6666ZM21.6666 11.6667H18.3333V21.6667H21.6666V11.6667ZM21.6666 25H18.3333V28.3333H21.6666V25Z" fill="#F38BA8"/>
</svg>
