<svg width="200" height="200" viewBox="0 0 200 200" fill="none" xmlns="http://www.w3.org/2000/svg">
<g clip-path="url(#clip0_46_5)">
<path d="M62.5 0H50V12.5H62.5V0Z" fill="#585B70"/>
<path d="M75 0H62.5V12.5H75V0Z" fill="#585B70"/>
<path d="M87.5 0H75V12.5H87.5V0Z" fill="#585B70"/>
<path d="M100 0H87.5V12.5H100V0Z" fill="#585B70"/>
<path d="M112.5 0H100V12.5H112.5V0Z" fill="#585B70"/>
<path d="M125 0H112.5V12.5H125V0Z" fill="#585B70"/>
<path d="M137.5 0H125V12.5H137.5V0Z" fill="#585B70"/>
<path d="M150 0H137.5V12.5H150V0Z" fill="#585B70"/>
<path d="M50 12.5H37.5V25H50V12.5Z" fill="#585B70"/>
<path d="M62.5 12.5H50V25H62.5V12.5Z" fill="#585B70"/>
<path d="M75 12.5H62.5V25H75V12.5Z" fill="#585B70"/>
<path d="M87.5 12.5H75V25H87.5V12.5Z" fill="#585B70"/>
<path d="M100 12.5H87.5V25H100V12.5Z" fill="#585B70"/>
<path d="M112.5 12.5H100V25H112.5V12.5Z" fill="#585B70"/>
<path d="M125 12.5H112.5V25H125V12.5Z" fill="#585B70"/>
<path d="M137.5 12.5H125V25H137.5V12.5Z" fill="#585B70"/>
<path d="M150 12.5H137.5V25H150V12.5Z" fill="#585B70"/>
<path d="M162.5 12.5H150V25H162.5V12.5Z" fill="#585B70"/>
<path d="M37.5 25H25V37.5H37.5V25Z" fill="#585B70"/>
<path d="M50 25H37.5V37.5H50V25Z" fill="#585B70"/>
<path d="M62.5 25H50V37.5H62.5V25Z" fill="#585B70"/>
<path d="M75 25H62.5V37.5H75V25Z" fill="#585B70"/>
<path d="M87.5 25H75V37.5H87.5V25Z" fill="#585B70"/>
<path d="M100 25H87.5V37.5H100V25Z" fill="#585B70"/>
<path d="M112.5 25H100V37.5H112.5V25Z" fill="#585B70"/>
<path d="M125 25H112.5V37.5H125V25Z" fill="#585B70"/>
<path d="M137.5 25H125V37.5H137.5V25Z" fill="#585B70"/>
<path d="M150 25H137.5V37.5H150V25Z" fill="#585B70"/>
<path d="M162.5 25H150V37.5H162.5V25Z" fill="#585B70"/>
<path d="M175 25H162.5V37.5H175V25Z" fill="#585B70"/>
<path d="M25 37.5H12.5V50H25V37.5Z" fill="#585B70"/>
<path d="M37.5 37.5H25V50H37.5V37.5Z" fill="#585B70"/>
<path d="M50 37.5H37.5V50H50V37.5Z" fill="#585B70"/>
<path d="M75 37.5H62.5V50H75V37.5Z" fill="#585B70"/>
<path d="M87.5 37.5H75V50H87.5V37.5Z" fill="#585B70"/>
<path d="M100 37.5H87.5V50H100V37.5Z" fill="#585B70"/>
<path d="M112.5 37.5H100V50H112.5V37.5Z" fill="#585B70"/>
<path d="M125 37.5H112.5V50H125V37.5Z" fill="#585B70"/>
<path d="M137.5 37.5H125V50H137.5V37.5Z" fill="#585B70"/>
<path d="M162.5 37.5H150V50H162.5V37.5Z" fill="#585B70"/>
<path d="M175 37.5H162.5V50H175V37.5Z" fill="#585B70"/>
<path d="M187.5 37.5H175V50H187.5V37.5Z" fill="#585B70"/>
<path d="M25 50H12.5V62.5H25V50Z" fill="#585B70"/>
<path d="M37.5 50H25V62.5H37.5V50Z" fill="#585B70"/>
<path d="M50 50H37.5V62.5H50V50Z" fill="#585B70"/>
<path d="M162.5 50H150V62.5H162.5V50Z" fill="#585B70"/>
<path d="M175 50H162.5V62.5H175V50Z" fill="#585B70"/>
<path d="M187.5 50H175V62.5H187.5V50Z" fill="#585B70"/>
<path d="M25 62.5H12.5V75H25V62.5Z" fill="#585B70"/>
<path d="M37.5 62.5H25V75H37.5V62.5Z" fill="#585B70"/>
<path d="M50 62.5H37.5V75H50V62.5Z" fill="#585B70"/>
<path d="M162.5 62.5H150V75H162.5V62.5Z" fill="#585B70"/>
<path d="M175 62.5H162.5V75H175V62.5Z" fill="#585B70"/>
<path d="M187.5 62.5H175V75H187.5V62.5Z" fill="#585B70"/>
<path d="M12.5 75H0V87.5H12.5V75Z" fill="#585B70"/>
<path d="M25 75H12.5V87.5H25V75Z" fill="#585B70"/>
<path d="M37.5 75H25V87.5H37.5V75Z" fill="#585B70"/>
<path d="M175 75H162.5V87.5H175V75Z" fill="#585B70"/>
<path d="M187.5 75H175V87.5H187.5V75Z" fill="#585B70"/>
<path d="M200 75H187.5V87.5H200V75Z" fill="#585B70"/>
<path d="M12.5 87.5H0V100H12.5V87.5Z" fill="#585B70"/>
<path d="M25 87.5H12.5V100H25V87.5Z" fill="#585B70"/>
<path d="M37.5 87.5H25V100H37.5V87.5Z" fill="#585B70"/>
<path d="M175 87.5H162.5V100H175V87.5Z" fill="#585B70"/>
<path d="M187.5 87.5H175V100H187.5V87.5Z" fill="#585B70"/>
<path d="M200 87.5H187.5V100H200V87.5Z" fill="#585B70"/>
<path d="M12.5 100H0V112.5H12.5V100Z" fill="#585B70"/>
<path d="M25 100H12.5V112.5H25V100Z" fill="#585B70"/>
<path d="M37.5 100H25V112.5H37.5V100Z" fill="#585B70"/>
<path d="M175 100H162.5V112.5H175V100Z" fill="#585B70"/>
<path d="M187.5 100H175V112.5H187.5V100Z" fill="#585B70"/>
<path d="M200 100H187.5V112.5H200V100Z" fill="#585B70"/>
<path d="M12.5 112.5H0V125H12.5V112.5Z" fill="#585B70"/>
<path d="M25 112.5H12.5V125H25V112.5Z" fill="#585B70"/>
<path d="M37.5 112.5H25V125H37.5V112.5Z" fill="#585B70"/>
<path d="M175 112.5H162.5V125H175V112.5Z" fill="#585B70"/>
<path d="M187.5 112.5H175V125H187.5V112.5Z" fill="#585B70"/>
<path d="M200 112.5H187.5V125H200V112.5Z" fill="#585B70"/>
<path d="M12.5 125H0V137.5H12.5V125Z" fill="#585B70"/>
<path d="M25 125H12.5V137.5H25V125Z" fill="#585B70"/>
<path d="M37.5 125H25V137.5H37.5V125Z" fill="#585B70"/>
<path d="M50 125H37.5V137.5H50V125Z" fill="#585B70"/>
<path d="M162.5 125H150V137.5H162.5V125Z" fill="#585B70"/>
<path d="M175 125H162.5V137.5H175V125Z" fill="#585B70"/>
<path d="M187.5 125H175V137.5H187.5V125Z" fill="#585B70"/>
<path d="M200 125H187.5V137.5H200V125Z" fill="#585B70"/>
<path d="M25 137.5H12.5V150H25V137.5Z" fill="#585B70"/>
<path d="M37.5 137.5H25V150H37.5V137.5Z" fill="#585B70"/>
<path d="M50 137.5H37.5V150H50V137.5Z" fill="#585B70"/>
<path d="M62.5 137.5H50V150H62.5V137.5Z" fill="#585B70"/>
<path d="M150 137.5H137.5V150H150V137.5Z" fill="#585B70"/>
<path d="M162.5 137.5H150V150H162.5V137.5Z" fill="#585B70"/>
<path d="M175 137.5H162.5V150H175V137.5Z" fill="#585B70"/>
<path d="M187.5 137.5H175V150H187.5V137.5Z" fill="#585B70"/>
<path d="M25 150H12.5V162.5H25V150Z" fill="#585B70"/>
<path d="M37.5 150H25V162.5H37.5V150Z" fill="#585B70"/>
<path d="M62.5 150H50V162.5H62.5V150Z" fill="#585B70"/>
<path d="M75 150H62.5V162.5H75V150Z" fill="#585B70"/>
<path d="M87.5 150H75V162.5H87.5V150Z" fill="#585B70"/>
<path d="M125 150H112.5V162.5H125V150Z" fill="#585B70"/>
<path d="M137.5 150H125V162.5H137.5V150Z" fill="#585B70"/>
<path d="M150 150H137.5V162.5H150V150Z" fill="#585B70"/>
<path d="M162.5 150H150V162.5H162.5V150Z" fill="#585B70"/>
<path d="M175 150H162.5V162.5H175V150Z" fill="#585B70"/>
<path d="M187.5 150H175V162.5H187.5V150Z" fill="#585B70"/>
<path d="M37.5 162.5H25V175H37.5V162.5Z" fill="#585B70"/>
<path d="M50 162.5H37.5V175H50V162.5Z" fill="#585B70"/>
<path d="M137.5 162.5H125V175H137.5V162.5Z" fill="#585B70"/>
<path d="M150 162.5H137.5V175H150V162.5Z" fill="#585B70"/>
<path d="M162.5 162.5H150V175H162.5V162.5Z" fill="#585B70"/>
<path d="M175 162.5H162.5V175H175V162.5Z" fill="#585B70"/>
<path d="M50 175H37.5V187.5H50V175Z" fill="#585B70"/>
<path d="M62.5 175H50V187.5H62.5V175Z" fill="#585B70"/>
<path d="M75 175H62.5V187.5H75V175Z" fill="#585B70"/>
<path d="M87.5 175H75V187.5H87.5V175Z" fill="#585B70"/>
<path d="M137.5 175H125V187.5H137.5V175Z" fill="#585B70"/>
<path d="M150 175H137.5V187.5H150V175Z" fill="#585B70"/>
<path d="M162.5 175H150V187.5H162.5V175Z" fill="#585B70"/>
<path d="M62.5 187.5H50V200H62.5V187.5Z" fill="#585B70"/>
<path d="M75 187.5H62.5V200H75V187.5Z" fill="#585B70"/>
<path d="M87.5 187.5H75V200H87.5V187.5Z" fill="#585B70"/>
<path d="M137.5 187.5H125V200H137.5V187.5Z" fill="#585B70"/>
<path d="M150 187.5H137.5V200H150V187.5Z" fill="#585B70"/>
</g>
<defs>
<clipPath id="clip0_46_5">
<rect width="200" height="200" fill="white"/>
</clipPath>
</defs>
</svg>
